# Blender 4.1.1
# www.blender.org
mtllib Ground.mtl
o 平面
v -0.977091 0.128791 1.022909
v 1.066272 0.204564 0.933728
v -1.000000 0.163811 -1.000000
v 0.936154 0.098910 -1.063845
v -0.973976 0.108167 -0.791667
v -0.988943 0.137806 -0.625307
v -0.952471 0.106334 -0.458662
v -1.000000 0.178718 -0.272727
v -0.940588 0.130638 -0.087597
v -1.000000 0.152635 0.090909
v -0.972188 0.081982 0.277865
v -1.000000 0.096468 0.454545
v -0.952751 0.144762 0.628824
v -1.000000 0.142469 0.818181
v 0.966720 0.106180 0.802229
v 1.000000 0.339622 0.636363
v 0.969437 0.110884 0.432703
v 0.999732 0.127389 0.272227
v 1.000000 0.108159 0.090909
v 0.986847 0.075627 -0.092460
v 0.991678 0.091335 -0.264405
v 1.124681 0.133919 -0.500631
v 0.911811 0.130921 -0.638332
v 1.053995 0.190706 -0.813899
v -0.804830 0.073036 1.013351
v -0.625107 0.111738 0.988743
v -0.452363 0.079982 0.976942
v -0.272727 0.091561 1.000000
v -0.093047 0.102945 0.971645
v 0.090909 0.108958 1.000000
v 0.275774 0.080678 0.979341
v 0.454545 0.077875 1.000000
v 0.633691 0.055693 0.985093
v 0.818181 0.117806 1.000000
v 0.818181 -0.000000 -1.000000
v 0.636363 0.111637 -1.000000
v 0.460486 0.093797 -0.963858
v 0.272727 0.171517 -1.000000
v 0.089460 0.090681 -0.959291
v -0.090909 0.155206 -1.000000
v -0.277490 0.150389 -0.942138
v -0.454545 0.125336 -1.000000
v -0.655059 0.114582 -0.981304
v -0.813732 0.089196 -0.964243
v 0.793873 0.091483 0.801788
v 0.637677 0.019126 0.814140
v 0.455777 0.064204 0.805196
v 0.272727 0.000000 0.818181
v 0.091835 0.050870 0.804263
v -0.087420 0.124244 0.797939
v -0.274091 0.077178 0.798643
v -0.454545 0.000000 0.818181
v -0.637622 0.065655 0.806082
v -0.818181 0.000000 0.818181
v 0.818181 0.000000 0.636363
v 0.636363 0.000000 0.636363
v 0.454545 0.000000 0.636363
v 0.272727 0.000000 0.636363
v 0.090909 0.000000 0.636363
v -0.090662 0.088566 0.633288
v -0.272727 0.000000 0.636363
v -0.454545 0.000000 0.636363
v -0.636363 0.047568 0.636363
v -0.818181 0.000000 0.636363
v 0.803839 0.004831 0.442364
v 0.629238 0.017313 0.449325
v 0.454545 0.000000 0.454545
v 0.272727 0.000000 0.454545
v 0.090909 0.051834 0.454545
v -0.090909 0.000000 0.454545
v -0.272727 0.029180 0.454545
v -0.454545 0.000000 0.454545
v -0.636363 0.037742 0.452097
v -0.818181 0.000000 0.454545
v 0.818181 0.000000 0.272727
v 0.636342 0.022226 0.296137
v 0.454545 0.000000 0.272727
v 0.272727 0.000000 0.272727
v 0.090909 0.000000 0.272727
v -0.090909 0.000000 0.272727
v -0.272727 0.000000 0.272727
v -0.454545 0.000000 0.272727
v -0.636363 0.000000 0.272727
v -0.818181 0.000000 0.272727
v 0.818181 0.000000 0.090909
v 0.636363 0.000000 0.090909
v 0.454545 0.000000 0.090909
v 0.272727 0.000000 0.090909
v 0.090909 0.000000 0.090909
v -0.090909 0.000000 0.090909
v -0.272727 0.000000 0.090909
v -0.454545 0.000000 0.090909
v -0.636363 0.043746 0.090909
v -0.818181 0.000000 0.090909
v 0.816897 0.037611 -0.092194
v 0.636363 -0.000000 -0.090909
v 0.454545 0.036281 -0.090909
v 0.272727 -0.000000 -0.090909
v 0.090909 -0.000000 -0.090909
v -0.090909 -0.000000 -0.090909
v -0.272727 -0.000000 -0.090909
v -0.454545 -0.000000 -0.090909
v -0.636363 -0.000000 -0.090909
v -0.818181 -0.000000 -0.090909
v 0.818181 -0.000000 -0.272727
v 0.636363 -0.000000 -0.272727
v 0.454545 -0.000000 -0.272727
v 0.271840 0.039201 -0.273614
v 0.090909 -0.000000 -0.272727
v -0.090909 -0.000000 -0.272727
v -0.272727 -0.000000 -0.272727
v -0.454545 -0.000000 -0.272727
v -0.638540 0.072066 -0.270551
v -0.818181 -0.000000 -0.272727
v 0.818181 -0.000000 -0.454545
v 0.636363 0.021910 -0.454545
v 0.454935 0.067758 -0.451352
v 0.272727 -0.000000 -0.454545
v 0.090909 -0.000000 -0.454545
v -0.090909 -0.000000 -0.454545
v -0.272727 -0.000000 -0.454545
v -0.454545 0.044409 -0.454545
v -0.637981 0.026327 -0.456927
v -0.818181 -0.000000 -0.454545
v 0.818181 -0.000000 -0.636363
v 0.636363 0.047599 -0.637795
v 0.454545 -0.000000 -0.636363
v 0.272727 0.060982 -0.636363
v 0.090909 -0.000000 -0.636363
v -0.090909 0.094045 -0.636363
v -0.272727 -0.000000 -0.636363
v -0.454545 -0.000000 -0.636363
v -0.636525 0.005358 -0.636525
v -0.818181 -0.000000 -0.636363
v 0.818181 -0.000000 -0.818181
v 0.636363 -0.000000 -0.818181
v 0.458340 0.091380 -0.795971
v 0.272727 -0.000000 -0.818181
v 0.091633 0.049120 -0.806524
v -0.090909 -0.000000 -0.818181
v -0.282013 0.105997 -0.782920
v -0.454545 -0.000000 -0.818181
v -0.637112 0.099895 -0.788281
v -0.818181 -0.000000 -0.818181
v 0.636363 0.000000 0.636363
v 0.453873 0.037395 0.631145
v 0.792131 0.059349 0.479349
v 0.685389 0.059622 0.488689
v 0.454545 0.000000 0.454545
v 0.272727 0.000000 0.454545
v 0.807973 0.108794 0.282936
v 0.630586 0.038790 0.294271
v 0.454545 0.000000 0.272727
v 0.272727 0.000000 0.272727
vn -0.6326 0.7744 0.0080
vn -0.2639 0.9308 -0.2529
vn -0.6957 0.6961 0.1774
vn -0.7343 0.6515 -0.1907
vn -0.1603 0.9741 0.1593
vn -0.3130 0.8957 -0.3159
vn -0.3836 0.9231 0.0279
vn -0.3504 0.9344 -0.0641
vn -0.4273 0.9031 -0.0439
vn -0.4952 0.8067 0.3224
vn -0.6895 0.7073 -0.1560
vn 0.5980 0.8004 -0.0424
vn -0.2887 0.9210 0.2615
vn 0.2874 0.9217 0.2607
vn -0.3007 0.9051 0.3007
vn 0.0354 0.9987 0.0354
vn 0.1254 0.9842 -0.1254
vn -0.0337 0.9989 -0.0337
vn -0.0874 0.9923 0.0874
vn 0.1281 0.9835 0.1281
vn 0.1292 0.9832 -0.1292
vn 0.6249 0.7807 0.0051
vn -0.0875 0.9945 -0.0581
vn -0.0330 0.9835 -0.1780
vn 0.1203 0.9854 -0.1203
vn -0.2429 0.9392 0.2429
vn 0.2429 0.9392 0.2429
vn -0.1632 0.9730 0.1632
vn -0.0184 0.9997 -0.0184
vn -0.0062 0.9935 -0.1135
vn 0.1870 0.9799 0.0690
vn 0.6689 0.7410 -0.0594
vn -0.2619 0.9577 -0.1194
vn 0.1454 0.9894 -0.0034
vn 0.1203 0.9854 0.1203
vn -0.0000 1.0000 -0.0000
vn -0.1071 0.9885 -0.1071
vn -0.0786 0.9938 0.0786
vn 0.1236 0.9629 0.2397
vn 0.0600 0.9964 0.0600
vn 0.7127 0.7011 -0.0235
vn -0.1930 0.9620 0.1930
vn 0.1908 0.9629 0.1908
vn -0.1066 0.9886 0.1066
vn 0.0080 0.9999 0.0080
vn 0.0988 0.9902 -0.0988
vn -0.1031 0.9893 -0.1031
vn 0.6803 0.7298 0.0676
vn -0.1186 0.9858 -0.1186
vn 0.1186 0.9858 -0.1186
vn -0.0988 0.9902 0.0988
vn 0.0988 0.9902 0.0988
vn -0.1023 0.9895 0.1023
vn 0.5702 0.8137 0.1129
vn -0.1186 0.9858 0.1186
vn 0.1186 0.9858 0.1186
vn -0.1012 0.9897 -0.1012
vn -0.1898 0.9173 -0.3501
vn 0.4693 0.8831 0.0007
vn -0.1034 0.9893 -0.1034
vn 0.1034 0.9893 -0.1034
vn -0.0797 0.9936 -0.0797
vn 0.0797 0.9936 -0.0797
vn -0.1397 0.9803 -0.1397
vn 0.1397 0.9803 -0.1397
vn -0.1108 0.9938 0.0122
vn 0.0975 0.9952 0.0067
vn 0.5986 0.7793 -0.1851
vn -0.2285 0.9732 -0.0261
vn 0.2285 0.9732 -0.0261
vn -0.0797 0.9936 0.0797
vn -0.1603 0.9740 -0.1603
vn 0.1009 0.9898 -0.1009
vn 0.1397 0.9803 0.1397
vn -0.1034 0.9892 -0.1034
vn -0.0478 0.9977 0.0478
vn 0.0127 0.9311 0.3645
vn 0.6683 0.7385 0.0896
vn -0.2994 0.9528 -0.0501
vn 0.2975 0.9535 -0.0480
vn -0.2146 0.9529 -0.2146
vn -0.3314 0.8924 -0.3062
vn 0.4031 0.8844 -0.2352
vn 0.1428 0.9794 -0.1428
vn -0.2713 0.9599 -0.0709
vn 0.2237 0.9662 -0.1282
vn -0.2097 0.9264 -0.3126
vn 0.4778 0.8616 -0.1712
vn -0.2931 0.9174 -0.2692
vn 0.2481 0.9052 -0.3449
vn -0.2298 0.9420 -0.2446
vn -0.1563 0.9876 0.0164
vn 0.1902 0.9772 -0.0939
vn 0.1913 0.9144 -0.3567
vn -0.1567 0.9549 -0.2523
vn 0.1795 0.9750 -0.1314
vn -0.3628 0.9217 -0.1371
vn 0.4404 0.8402 0.3166
vn -0.3409 0.8950 0.2878
vn 0.2534 0.9101 0.3278
vn -0.4133 0.8174 0.4013
vn 0.3354 0.8111 0.4792
vn -0.0366 0.8613 0.5068
vn 0.0038 0.8435 0.5371
vn -0.1018 0.8910 0.4425
vn 0.2415 0.9221 0.3022
vn 0.2816 0.9173 0.2816
vn -0.0000 -0.1382 -0.9904
vn -0.0170 0.6239 -0.7813
vn -0.0000 -0.0000 -1.0000
vn 0.1031 -0.0530 0.9933
vn -0.1352 0.0644 0.9887
vn -0.0000 -0.0000 -0.0000
vn -0.9899 -0.1055 -0.0945
vn 0.9998 0.0180 -0.0000
vn -0.6407 0.7619 0.0949
vt 0.909091 0.909091
vt 1.000000 0.909091
vt 1.000000 1.000000
vt 0.909091 1.000000
vt 0.909091 0.000000
vt 1.000000 0.000000
vt 1.000000 0.090909
vt 0.909091 0.090909
vt 1.000000 0.181818
vt 0.909091 0.181818
vt 1.000000 0.272727
vt 0.909091 0.272727
vt 1.000000 0.363636
vt 0.909091 0.363636
vt 1.000000 0.454545
vt 0.909091 0.454545
vt 1.000000 0.545455
vt 0.909091 0.545455
vt 1.000000 0.636364
vt 0.909091 0.636364
vt 1.000000 0.727273
vt 0.909091 0.727273
vt 1.000000 0.818182
vt 0.909091 0.818182
vt 0.000000 0.818182
vt 0.090909 0.818182
vt 0.090909 0.909091
vt 0.000000 0.909091
vt 0.181818 0.818182
vt 0.181818 0.909091
vt 0.272727 0.818182
vt 0.272727 0.909091
vt 0.363636 0.818182
vt 0.363636 0.909091
vt 0.454545 0.818182
vt 0.454545 0.909091
vt 0.545455 0.818182
vt 0.545455 0.909091
vt 0.636364 0.818182
vt 0.636364 0.909091
vt 0.727273 0.818182
vt 0.727273 0.909091
vt 0.818182 0.818182
vt 0.818182 0.909091
vt 0.000000 0.727273
vt 0.090909 0.727273
vt 0.181818 0.727273
vt 0.272727 0.727273
vt 0.363636 0.727273
vt 0.454545 0.727273
vt 0.545455 0.727273
vt 0.636364 0.727273
vt 0.727273 0.727273
vt 0.818182 0.727273
vt 0.000000 0.636364
vt 0.090909 0.636364
vt 0.181818 0.636364
vt 0.272727 0.636364
vt 0.363636 0.636364
vt 0.454545 0.636364
vt 0.545455 0.636364
vt 0.636364 0.636364
vt 0.727273 0.636364
vt 0.818182 0.636364
vt 0.000000 0.545455
vt 0.090909 0.545455
vt 0.181818 0.545455
vt 0.272727 0.545455
vt 0.363636 0.545455
vt 0.454545 0.545455
vt 0.545455 0.545455
vt 0.636364 0.545455
vt 0.727273 0.545455
vt 0.818182 0.545455
vt 0.000000 0.454545
vt 0.090909 0.454545
vt 0.181818 0.454545
vt 0.272727 0.454545
vt 0.363636 0.454545
vt 0.454545 0.454545
vt 0.545455 0.454545
vt 0.636364 0.454545
vt 0.727273 0.454545
vt 0.818182 0.454545
vt 0.000000 0.363636
vt 0.090909 0.363636
vt 0.181818 0.363636
vt 0.272727 0.363636
vt 0.363636 0.363636
vt 0.454545 0.363636
vt 0.545455 0.363636
vt 0.636364 0.363636
vt 0.727273 0.363636
vt 0.818182 0.363636
vt 0.000000 0.272727
vt 0.090909 0.272727
vt 0.181818 0.272727
vt 0.272727 0.272727
vt 0.363636 0.272727
vt 0.454545 0.272727
vt 0.545455 0.272727
vt 0.636364 0.272727
vt 0.727273 0.272727
vt 0.818182 0.272727
vt 0.000000 0.181818
vt 0.090909 0.181818
vt 0.181818 0.181818
vt 0.272727 0.181818
vt 0.363636 0.181818
vt 0.454545 0.181818
vt 0.545455 0.181818
vt 0.636364 0.181818
vt 0.727273 0.181818
vt 0.818182 0.181818
vt 0.000000 0.090909
vt 0.090909 0.090909
vt 0.181818 0.090909
vt 0.272727 0.090909
vt 0.363636 0.090909
vt 0.454545 0.090909
vt 0.545455 0.090909
vt 0.636364 0.090909
vt 0.727273 0.090909
vt 0.818182 0.090909
vt 0.000000 0.000000
vt 0.090909 0.000000
vt 0.181818 0.000000
vt 0.272727 0.000000
vt 0.363636 0.000000
vt 0.454545 0.000000
vt 0.545455 0.000000
vt 0.636364 0.000000
vt 0.727273 0.000000
vt 0.818182 0.000000
vt 0.090909 1.000000
vt 0.000000 1.000000
vt 0.181818 1.000000
vt 0.272727 1.000000
vt 0.363636 1.000000
vt 0.454545 1.000000
vt 0.545455 1.000000
vt 0.636364 1.000000
vt 0.727273 1.000000
vt 0.818182 1.000000
s 0
usemtl マテリアル
f 135/1/1 24/2/1 4/3/1 35/4/1
f 34/5/2 2/6/2 15/7/2 45/8/2
f 45/8/3 15/7/3 16/9/3 55/10/3
f 55/10/4 16/9/4 17/11/4 147/12/4
f 147/12/5 17/11/5 18/13/5 151/14/5
f 151/14/6 18/13/6 19/15/6 85/16/6
f 85/16/7 19/15/7 20/17/7 95/18/7
f 95/18/8 20/17/8 21/19/8 105/20/8
f 105/20/9 21/19/9 22/21/9 115/22/9
f 115/22/10 22/21/10 23/23/10 125/24/10
f 125/24/11 23/23/11 24/2/11 135/1/11
f 6/25/12 134/26/12 144/27/12 5/28/12
f 134/26/13 133/29/13 143/30/13 144/27/13
f 133/29/14 132/31/14 142/32/14 143/30/14
f 132/31/15 131/33/15 141/34/15 142/32/15
f 131/33/16 130/35/16 140/36/16 141/34/16
f 130/35/17 129/37/17 139/38/17 140/36/17
f 129/37/18 128/39/18 138/40/18 139/38/18
f 128/39/19 127/41/19 137/42/19 138/40/19
f 127/41/20 126/43/20 136/44/20 137/42/20
f 126/43/21 125/24/21 135/1/21 136/44/21
f 7/45/22 124/46/22 134/26/22 6/25/22
f 124/46/23 123/47/23 133/29/23 134/26/23
f 123/47/24 122/48/24 132/31/24 133/29/24
f 122/48/25 121/49/25 131/33/25 132/31/25
f 121/49/26 120/50/26 130/35/26 131/33/26
f 120/50/27 119/51/27 129/37/27 130/35/27
f 119/51/28 118/52/28 128/39/28 129/37/28
f 118/52/29 117/53/29 127/41/29 128/39/29
f 117/53/30 116/54/30 126/43/30 127/41/30
f 116/54/31 115/22/31 125/24/31 126/43/31
f 8/55/32 114/56/32 124/46/32 7/45/32
f 114/56/33 113/57/33 123/47/33 124/46/33
f 113/57/34 112/58/34 122/48/34 123/47/34
f 112/58/35 111/59/35 121/49/35 122/48/35
f 111/59/36 110/60/36 120/50/36 121/49/36
f 110/60/36 109/61/36 119/51/36 120/50/36
f 109/61/37 108/62/37 118/52/37 119/51/37
f 108/62/38 107/63/38 117/53/38 118/52/38
f 107/63/39 106/64/39 116/54/39 117/53/39
f 106/64/40 105/20/40 115/22/40 116/54/40
f 9/65/41 104/66/41 114/56/41 8/55/41
f 104/66/42 103/67/42 113/57/42 114/56/42
f 103/67/43 102/68/43 112/58/43 113/57/43
f 102/68/36 101/69/36 111/59/36 112/58/36
f 101/69/36 100/70/36 110/60/36 111/59/36
f 100/70/36 99/71/36 109/61/36 110/60/36
f 99/71/44 98/72/44 108/62/44 109/61/44
f 98/72/45 97/73/45 107/63/45 108/62/45
f 97/73/46 96/74/46 106/64/46 107/63/46
f 96/74/47 95/18/47 105/20/47 106/64/47
f 10/75/48 94/76/48 104/66/48 9/65/48
f 94/76/49 93/77/49 103/67/49 104/66/49
f 93/77/50 92/78/50 102/68/50 103/67/50
f 92/78/36 91/79/36 101/69/36 102/68/36
f 91/79/36 90/80/36 100/70/36 101/69/36
f 90/80/36 89/81/36 99/71/36 100/70/36
f 89/81/36 88/82/36 98/72/36 99/71/36
f 88/82/51 87/83/51 97/73/51 98/72/51
f 87/83/52 86/84/52 96/74/52 97/73/52
f 86/84/53 85/16/53 95/18/53 96/74/53
f 11/85/54 84/86/54 94/76/54 10/75/54
f 84/86/55 83/87/55 93/77/55 94/76/55
f 83/87/56 82/88/56 92/78/56 93/77/56
f 82/88/36 81/89/36 91/79/36 92/78/36
f 81/89/36 80/90/36 90/80/36 91/79/36
f 80/90/36 79/91/36 89/81/36 90/80/36
f 79/91/36 154/92/36 88/82/36 89/81/36
f 154/92/36 153/93/36 87/83/36 88/82/36
f 153/93/57 152/94/57 86/84/57 87/83/57
f 152/94/58 151/14/58 85/16/58 86/84/58
f 12/95/59 74/96/59 84/86/59 11/85/59
f 74/96/60 73/97/60 83/87/60 84/86/60
f 73/97/61 72/98/61 82/88/61 83/87/61
f 72/98/62 71/99/62 81/89/62 82/88/62
f 71/99/63 70/100/63 80/90/63 81/89/63
f 70/100/64 69/101/64 79/91/64 80/90/64
f 69/101/65 150/102/65 154/92/65 79/91/65
f 68/102/36 149/103/36 77/93/36 78/92/36
f 149/103/66 66/104/66 76/94/66 77/93/66
f 66/104/67 65/12/67 75/14/67 76/94/67
f 13/105/68 64/106/68 74/96/68 12/95/68
f 64/106/69 63/107/69 73/97/69 74/96/69
f 63/107/70 62/108/70 72/98/70 73/97/70
f 62/108/71 61/109/71 71/99/71 72/98/71
f 61/109/72 60/110/72 70/100/72 71/99/72
f 60/110/73 59/111/73 69/101/73 70/100/73
f 59/111/74 58/112/74 150/102/74 69/101/74
f 58/112/75 146/113/75 67/103/75 150/102/75
f 57/113/76 56/114/76 66/104/76 149/103/76
f 145/114/77 55/10/77 147/12/77 148/104/77
f 14/115/78 54/116/78 64/106/78 13/105/78
f 54/116/79 53/117/79 63/107/79 64/106/79
f 53/117/80 52/118/80 62/108/80 63/107/80
f 52/118/81 51/119/81 61/109/81 62/108/81
f 51/119/82 50/120/82 60/110/82 61/109/82
f 50/120/83 49/121/83 59/111/83 60/110/83
f 49/121/84 48/122/84 58/112/84 59/111/84
f 48/122/85 47/123/85 146/113/85 58/112/85
f 47/123/86 46/124/86 145/114/86 146/113/86
f 46/124/87 45/8/87 55/10/87 145/114/87
f 1/125/88 25/126/88 54/116/88 14/115/88
f 25/126/89 26/127/89 53/117/89 54/116/89
f 26/127/90 27/128/90 52/118/90 53/117/90
f 27/128/91 28/129/91 51/119/91 52/118/91
f 28/129/92 29/130/92 50/120/92 51/119/92
f 29/130/93 30/131/93 49/121/93 50/120/93
f 30/131/94 31/132/94 48/122/94 49/121/94
f 31/132/95 32/133/95 47/123/95 48/122/95
f 32/133/96 33/134/96 46/124/96 47/123/96
f 33/134/97 34/5/97 45/8/97 46/124/97
f 5/28/98 144/27/98 44/135/98 3/136/98
f 144/27/99 143/30/99 43/137/99 44/135/99
f 143/30/100 142/32/100 42/138/100 43/137/100
f 142/32/101 141/34/101 41/139/101 42/138/101
f 141/34/102 140/36/102 40/140/102 41/139/102
f 140/36/103 139/38/103 39/141/103 40/140/103
f 139/38/104 138/40/104 38/142/104 39/141/104
f 138/40/105 137/42/105 37/143/105 38/142/105
f 137/42/106 136/44/106 36/144/106 37/143/106
f 136/44/107 135/1/107 35/4/107 36/144/107
f 56/114/108 57/113/108 146/113/108 145/114/108
f 65/12/109 66/104/109 148/104/109 147/12/109
f 149/103/36 68/102/110 150/102/36 67/103/110
f 76/94/111 75/14/111 151/14/111 152/94/111
f 77/93/112 76/94/112 152/94/112 153/93/112
f 78/92/36 77/93/110 153/93/36 154/92/110
f 68/102/113 78/92/113 154/92/113 150/102/113
f 75/14/114 65/12/114 147/12/114 151/14/114
f 57/113/115 149/103/115 67/103/115 146/113/115
f 66/104/116 56/114/116 145/114/116 148/104/116
